After striking responsive chord at the Berlin Film Festival, Fernando Trueba's Belle Epoque (aka Age of Beauty) went on to win 9 Spanish Goya awards and an Academy Award for "Best Foreign Film." Set in pre-Franco Spain, film stars Jorge Sanz  as Fernando, a carefree, pacifistic army deserter. Wandering about the countryside, Fernando is welcomed into home of the wealthy Don Manolo (Fernando Fernan Gomez). Far from upset by the boy's AWOL status, Manolo is delighted because he shares Fernando's political philosophies. What follows is sheer heaven for the peaceloving lad, who sits smilingly on the sidelines as Manolo's four voluptuous daughters (Adrian Gil, Maribel Verdu, Miriam Diaz-Aroca, and Penelope Cruz) literally fight for his attentions. 

   General
      Complete name : Belle Epoque.avi
      Format : AVI
      Format/Info : Audio Video Interleave
      File size : 1.36 GiB
      Duration : 1h 49mn
      Overall bit rate : 1 784 Kbps
      Writing application : FairUse Wizard - http://fairusewizard.com
      Writing library : The best and REALLY easy backup tool
   Video #0
      ID : 0
      Format : MPEG-4 Visual
      Format profile : AdvancedSimple@L5
      Format settings, BVOP : Yes
      Format settings, QPel : No
      Format settings, GMC : No warppoints
      Format settings, Matrix : Default (MPEG)
      Muxing mode : Packed bitstream
      Codec ID : XVID
      Codec ID/Hint : XviD
      Duration : 1h 49mn
      Bit rate : 1 582 Kbps
      Width : 672 pixels
      Height : 288 pixels
      Display aspect ratio : 2.35:1
      Frame rate : 25.000 fps
      Resolution : 24 bits
      Colorimetry : 4:2:0
      Scan type : Progressive
      Bits/(Pixel*Frame) : 0.327
      Stream size : 1.21 GiB (89%)
      Writing library : XviD 1.2.0.dev47 (UTC 2006-11-01)
   Audio #1
      ID : 1
      Format : AC-3
      Format/Info : Audio Coding 3
      Codec ID : 2000
      Duration : 1h 49mn
      Bit rate mode : Constant
      Bit rate : 192 Kbps
      Channel(s) : 2 channels
      Channel positions : L R
      Sampling rate : 48.0 KHz
      Stream size : 150 MiB (11%)
      Alignment : Split accross interleaves
      Interleave, duration : 40 ms (1.00 video frame)
      Interleave, preload duration : 500 ms
 
http://www.imdb.com/title/tt0103791/

Fernando Trueba - Belle epoque (1992)

Spanish audio; English and Portuguese subtitles